<?xml version="1.0" standalone="no"?>
<!DOCTYPE svg PUBLIC "-//W3C//DTD SVG 20010904//EN"
 "http://www.w3.org/TR/2001/REC-SVG-20010904/DTD/svg10.dtd">
<svg version="1.0" xmlns="http://www.w3.org/2000/svg"
 width="1280.000000pt" height="781.000000pt" viewBox="0 0 1280.000000 781.000000"
 preserveAspectRatio="xMidYMid meet">
<g transform="translate(0.000000,781.000000) scale(0.100000,-0.100000)"
fill="#000000" stroke="none">
<path d="M3963 6545 c-778 -80 -1467 -354 -2108 -837 -506 -382 -830 -788
-974 -1223 -72 -217 -97 -391 -88 -620 11 -297 90 -491 276 -675 203 -201 463
-300 789 -300 560 0 1147 303 1702 876 375 387 571 786 570 1163 -1 294 -120
467 -371 538 -97 27 -387 24 -525 -5 -220 -47 -447 -145 -649 -280 -444 -296
-749 -667 -842 -1019 -33 -130 -42 -318 -19 -416 41 -173 164 -305 315 -338
61 -13 121 -5 121 16 0 15 -14 20 -92 30 -96 12 -195 112 -219 221 -10 45 -10
74 -1 140 53 365 419 843 957 1251 66 50 131 102 144 117 l24 26 -34 0 -34 1
35 30 c43 37 212 121 300 149 278 89 567 55 702 -83 140 -143 166 -447 64
-752 -91 -270 -255 -514 -536 -796 -516 -517 -1038 -794 -1541 -816 -527 -24
-900 229 -975 660 -85 482 232 1107 876 1730 233 226 437 388 743 592 97 64
181 123 189 132 14 17 13 17 -78 -2 -27 -6 -26 -4 11 20 58 38 283 150 373
186 277 112 559 183 887 226 214 27 711 25 933 -5 354 -48 617 -129 850 -263
90 -52 172 -111 211 -153 21 -23 22 -25 4 -30 -10 -4 -30 -22 -44 -41 -14 -18
-90 -92 -170 -163 -354 -317 -771 -782 -1128 -1257 -62 -82 -290 -415 -506
-740 -575 -864 -685 -1018 -876 -1231 -361 -403 -748 -657 -1164 -764 -304
-78 -650 -80 -911 -4 -305 88 -538 302 -552 507 l-4 62 33 -32 c50 -47 144
-93 190 -93 78 0 160 54 200 133 29 55 52 191 46 267 -13 148 -73 210 -207
210 -96 0 -166 -31 -232 -102 -169 -179 -171 -470 -4 -686 127 -165 403 -310
676 -356 334 -56 669 -15 1151 139 77 25 145 45 151 45 6 0 2 -10 -10 -23 -35
-37 -29 -50 21 -42 144 24 460 180 733 362 317 211 540 436 758 766 143 216
256 421 490 887 283 566 391 754 674 1185 80 121 157 247 173 280 15 34 60
103 100 155 85 112 353 384 388 395 18 5 28 2 40 -13 9 -11 45 -32 79 -48 79
-34 113 -77 187 -229 71 -144 86 -203 92 -360 13 -336 -109 -648 -348 -887
-176 -176 -368 -258 -604 -258 -141 0 -247 25 -384 90 -57 28 -110 50 -117 50
-26 0 -14 -39 19 -63 121 -91 350 -154 596 -164 l154 -6 -33 -27 c-33 -27 -33
-28 -12 -39 40 -22 159 -9 282 31 285 92 589 368 701 636 99 238 120 548 54
776 -63 217 -171 384 -393 605 -71 69 -82 85 -71 96 24 24 229 133 338 181
274 120 498 173 766 181 205 6 285 -3 420 -48 295 -98 506 -346 578 -678 16
-75 21 -132 21 -261 0 -186 -15 -292 -65 -446 -33 -103 -32 -127 3 -122 43 6
91 152 124 378 22 156 15 389 -16 510 -95 371 -387 639 -769 705 -111 20 -372
19 -503 0 -271 -41 -547 -141 -836 -302 l-133 -74 -82 49 c-321 193 -702 319
-1147 378 -171 23 -722 28 -907 9z"/>
<path d="M10925 5621 c-58 -89 -2805 -4601 -2805 -4607 0 -2 17 -4 39 -4 34 0
39 -3 47 -32 13 -44 40 -55 149 -63 80 -6 98 -5 136 13 24 10 54 30 65 43 12
13 270 438 574 944 494 823 560 927 620 989 l69 69 44 -46 c30 -31 59 -50 88
-57 66 -18 217 -7 334 25 55 15 113 30 128 33 26 4 28 3 21 -23 l-7 -28 54 6
c64 8 227 86 381 184 368 232 611 483 714 737 59 145 78 248 78 431 0 153 -1
164 -30 245 -53 149 -140 255 -254 309 -45 21 -70 25 -140 26 -134 0 -229 -44
-384 -177 -37 -32 -71 -57 -73 -54 -9 9 68 142 270 469 109 175 204 331 212
347 8 16 16 52 19 80 2 35 16 75 40 122 20 39 35 73 32 75 -2 3 -36 0 -75 -6
-92 -14 -162 -14 -240 3 l-63 13 -43 -66z m375 -863 c33 -17 51 -35 68 -68 22
-42 23 -54 19 -180 -3 -118 -8 -146 -35 -227 -60 -178 -165 -362 -336 -590
-250 -333 -513 -596 -714 -714 -129 -76 -280 -102 -349 -59 -146 88 -72 263
402 954 42 60 114 174 162 253 118 195 196 297 333 434 115 115 198 178 267
204 59 21 132 18 183 -7z"/>
</g>
</svg>
