<?xml version="1.0" encoding="UTF-8" standalone="no"?>
<svg
   version="1.0"
   width="2388.04pt"
   height="1090.3971pt"
   viewBox="0 0 2388.04 1090.3971"
   preserveAspectRatio="xMidYMid"
   id="svg2"
   xmlns="http://www.w3.org/2000/svg"
   xmlns:svg="http://www.w3.org/2000/svg">
  <defs
     id="defs2" />
  <g
     id="g8"
     transform="translate(95.786541,-925.10308)">
    <g
       id="g7"
       transform="matrix(0.95609171,-0.29306761,0.06832519,1.0249812,35.16926,-80.286565)">
      <path
         d="m 339.72621,1300.5047 c -33.33251,39.1821 -68.01281,63.7257 -104.46104,73.7737 -18.1828,5.0257 -32.64827,6.4373 -51.53988,4.9435 -24.50369,-1.8835 -40.25875,-8.858 -54.8139,-24.3573 -15.90057,-16.9166 -23.17354,-38.0476 -22.03539,-64.1231 1.95511,-44.7924 29.04238,-90.7206 78.32892,-133.1766 33.28832,-28.6871 66.9433,-43.016 98.09257,-41.662 24.2907,1.0735 38.1708,11.1766 43.16146,31.4931 1.89245,7.85 0.63208,31.0359 -2.24608,41.976 -4.65184,17.4382 -13.54243,35.2639 -25.40316,50.9649 -26.00959,34.5137 -57.73138,57.6558 -87.14299,63.905 -10.85754,2.2002 -26.42403,2.2848 -34.44179,0.1139 -14.15243,-3.8641 -24.6306,-14.1485 -26.83031,-26.338 -0.86127,-4.9231 0.009,-9.6952 1.74457,-9.6243 1.2395,0.05 1.60379,1.1874 2.1578,7.4602 0.65645,7.7192 8.57414,15.9758 17.49738,18.2639 3.68358,0.9519 6.07995,1.0499 11.56517,0.553 25.42061,1.3288 43.37344,8.1303 100.83576,-50.2706 18.94183,-19.2958 15.59973,-16.4856 22.59831,-29.2962 0,0 8.86961,-19.5109 11.49058,-26.455 8.32493,-21.9355 6.52438,-45.1664 -4.4077,-56.431 -11.32779,-11.6814 -36.35754,-14.7883 -61.91681,-7.6605 -22.6287,6.3663 -43.36379,18.6595 -67.64744,40.1827 -44.52291,39.5258 -69.23478,80.3427 -72.80882,120.5015 -3.8231,42.0717 15.78089,72.7617 51.134,80.2172 39.5325,8.4278 92.28505,-14.8158 146.01398,-64.2216 19.4886,-17.8732 33.58741,-33.6429 51.51293,-57.4293 34.66674,-50.3544 12.22747,-7.3831 27.00016,-39.1701 10.22201,-21.7777 -5.28848,46.2279 -47.43828,95.867 z"
         id="path3"
         style="fill:#000000;stroke:none;stroke-width:0.0813716" />
      <path
         d="m 85.397993,1140.2921 c -43.75448,66.9095 -68.29907,113.4658 -118.888003,195.7411 -42.26525,63.5081 -180.37161,260.6221 -198.8,153.7 l -0.4,-6.2 3.3,3.2 c 5,4.7 14.4,9.3 19,9.3 7.8,0 16,-5.4 20,-13.3 2.9,-5.5 5.2,-19.1 4.6,-26.7 -1.3,-14.8 -7.3,-21 -20.7,-21 -9.6,0 -16.6,3.1 -23.2,10.2 -16.9,17.9 -17.1,47 -0.4,68.6 44.92008,94.7461 159.305435,-39.2347 196.5,-93.6 14.3,-21.6 25.6,-42.1 49,-88.7 28.3,-56.6 39.1,-75.4 67.4,-118.5 8,-12.1 15.7,-24.7 17.3,-28 1.5,-3.4 6,-10.3 10,-15.5 8.5,-11.2 35.3,-38.4 38.8,-39.5 22.68225,-22.3992 30.31396,-23.2227 58,-37.1 27.4,-12 49.8,-17.3 76.6,-18.1 20.5,-0.6 28.5,0.3 42,4.8 29.5,9.8 50.6,34.6 57.8,67.8 1.6,7.5 2.1,13.2 2.1,26.1 0,18.6 -4.46247,33.587 -9.46247,48.987 -3.3,10.3 -0.23753,8.313 3.26247,7.813 4.3,-0.6 9.1,-15.2 12.4,-37.8 2.2,-15.6 1.5,-38.9 -1.6,-51 -9.5,-37.1 -38.7,-63.9 -76.9,-70.5 -11.1,-2 -37.2,-1.9 -50.3,0 -114.60435,3.031 -131.21089,22.8785 -177.411997,69.2589 z"
         id="path4"
         style="fill:#000000;stroke:none;stroke-width:0.1" />
    </g>
    <text
       xml:space="preserve"
       style="font-style:italic;font-variant:normal;font-weight:500;font-stretch:normal;font-size:650px;font-family:Z003;-inkscape-font-specification:'Z003 Medium Italic';text-align:start;writing-mode:lr-tb;direction:ltr;text-anchor:start;fill:#000000;stroke-width:0.75"
       x="640.40161"
       y="1546.4174"
       id="text5"
       transform="skewX(-15.151214)"><tspan
         id="tspan5"
         style="font-size:650px;stroke-width:0.75"
         x="640.40161"
         y="1546.4174">reprint </tspan><tspan
         style="font-size:650px;stroke-width:0.75"
         x="640.40161"
         y="2358.9175"
         id="tspan6" /></text>
    <text
       xml:space="preserve"
       style="font-style:italic;font-variant:normal;font-weight:500;font-stretch:normal;font-size:650px;font-family:Z003;-inkscape-font-specification:'Z003 Medium Italic';text-align:start;writing-mode:lr-tb;direction:ltr;text-anchor:start;fill:#000000;stroke-width:0.75"
       x="717.4071"
       y="2005.1003"
       id="text7"
       transform="skewX(-16.542406)"><tspan
         id="tspan7"
         style="stroke-width:0.75"
         x="717.4071"
         y="2005.1003">commons</tspan></text>
  </g>
</svg>
